<?xml version="1.0" standalone="no"?>
<!DOCTYPE svg PUBLIC "-//W3C//DTD SVG 20010904//EN"
 "http://www.w3.org/TR/2001/REC-SVG-20010904/DTD/svg10.dtd">
<svg version="1.0" xmlns="http://www.w3.org/2000/svg"
 width="260.000000pt" height="260.000000pt" viewBox="0 0 260.000000 260.000000"
 preserveAspectRatio="xMidYMid meet">
<metadata>
Created by potrace 1.14, written by Peter Selinger 2001-2017
</metadata>
<g transform="translate(0.000000,260.000000) scale(0.100000,-0.100000)"
fill="#000000" stroke="none">
<path d="M1007 2580 c-289 -66 -576 -244 -738 -457 -24 -32 -47 -60 -50 -63
-15 -12 -111 -190 -140 -259 -18 -42 -43 -116 -56 -166 -23 -86 -24 -100 -20
-345 2 -140 7 -270 11 -289 14 -62 67 -205 106 -282 89 -176 253 -368 409
-477 151 -105 356 -192 531 -223 93 -17 375 -17 450 -1 30 7 64 14 76 16 50
10 209 68 276 102 293 146 530 407 644 710 58 154 79 280 79 464 0 113 -3 149
-21 260 -17 107 -147 415 -194 460 -3 3 -14 18 -23 33 -30 47 -57 78 -155 174
-98 98 -211 179 -330 238 -71 35 -231 93 -282 101 -14 3 -40 9 -57 14 -18 4
-124 8 -235 8 -159 0 -220 -4 -281 -18z"/>
</g>
</svg>
